<?xml version="1.0" encoding="utf-8"?>
<!-- Generator: Adobe Illustrator 16.0.4, SVG Export Plug-In . SVG Version: 6.00 Build 0)  -->
<!DOCTYPE svg PUBLIC "-//W3C//DTD SVG 1.1//EN" "http://www.w3.org/Graphics/SVG/1.1/DTD/svg11.dtd">
<svg version="1.1" id="SelBox" xmlns="http://www.w3.org/2000/svg" xmlns:xlink="http://www.w3.org/1999/xlink" x="0px" y="0px"
	 width="91.5px" height="91.6px" viewBox="0 0 91.5 91.6" enable-background="new 0 0 91.5 91.6" xml:space="preserve">
<g id="Selectionbox">
	<rect x="5.8" y="4.5" fill="#FFFFFF" width="61.6" height="65.3"/>
	<g>
		<polyline fill="none" stroke="#000000" stroke-width="2" stroke-miterlimit="10" points="67.3,67.9 67.3,69.9 65.3,69.9 		"/>
		
			<line fill="none" stroke="#000000" stroke-width="2" stroke-miterlimit="10" stroke-dasharray="3.8384,3.8384" x1="61.5" y1="69.9" x2="9.7" y2="69.9"/>
		<polyline fill="none" stroke="#000000" stroke-width="2" stroke-miterlimit="10" points="7.8,69.9 5.8,69.9 5.8,67.9 		"/>
		
			<line fill="none" stroke="#000000" stroke-width="2" stroke-miterlimit="10" stroke-dasharray="4.0892,4.0892" x1="5.8" y1="63.8" x2="5.8" y2="8.6"/>
		<polyline fill="none" stroke="#000000" stroke-width="2" stroke-miterlimit="10" points="5.8,6.5 5.8,4.5 7.8,4.5 		"/>
		
			<line fill="none" stroke="#000000" stroke-width="2" stroke-miterlimit="10" stroke-dasharray="3.8384,3.8384" x1="11.6" y1="4.5" x2="63.4" y2="4.5"/>
		<polyline fill="none" stroke="#000000" stroke-width="2" stroke-miterlimit="10" points="65.3,4.5 67.3,4.5 67.3,6.5 		"/>
		
			<line fill="none" stroke="#000000" stroke-width="2" stroke-miterlimit="10" stroke-dasharray="4.0892,4.0892" x1="67.3" y1="10.6" x2="67.3" y2="65.8"/>
	</g>
</g>
<g id="AmigaPointer">
	<polygon fill="#020202" points="76.1,66.3 76.1,61.4 71.2,61.4 71.2,56.5 66.3,56.5 66.3,51.5 61.4,51.5 61.4,46.6 56.5,46.6 
		56.5,41.7 61.4,41.7 61.4,31.9 56.5,31.9 56.5,27 31.9,27 27,27 27,56.5 31.9,56.5 31.9,61.4 41.7,61.4 41.7,56.5 46.6,56.5 
		46.6,61.4 51.5,61.4 51.5,66.3 56.5,66.3 56.5,71.2 61.4,71.2 61.4,76.1 66.3,76.1 66.3,81 71.2,81 71.2,76.1 76.1,76.1 76.1,71.2 
		81,71.2 81,66.3 	"/>
	<polygon fill="#B7C7D4" points="71.2,66.3 71.2,61.4 66.3,61.4 66.3,56.5 61.4,56.5 61.4,51.5 56.5,51.5 56.5,46.6 51.5,46.6 
		51.5,41.7 56.5,41.7 56.5,36.8 56.5,31.9 31.9,31.9 31.9,36.8 46.6,36.8 46.6,51.5 51.5,51.5 51.5,56.5 56.5,56.5 56.5,61.4 
		61.4,61.4 61.4,66.3 66.3,66.3 66.3,71.2 76.1,71.2 76.1,66.3 	"/>
	<polygon fill="#E73C2D" points="71.2,66.3 66.3,66.3 66.3,61.4 61.4,61.4 61.4,56.5 56.5,56.5 56.5,51.5 51.5,51.5 51.5,46.6 
		46.6,46.6 46.6,41.7 51.5,41.7 51.5,36.8 41.7,36.8 31.9,36.8 31.9,56.5 41.7,56.5 41.7,51.5 46.6,51.5 46.6,56.5 51.5,56.5 
		51.5,61.4 56.5,61.4 56.5,66.3 61.4,66.3 61.4,71.2 66.3,71.2 66.3,76.1 71.2,76.1 71.2,71.2 	"/>
</g>
</svg>
